<svg xmlns="http://www.w3.org/2000/svg" width="459.974" height="331.089" viewBox="0 0 459.974 331.089"><defs><style>.a{fill:#3f3d56;}.b{fill:#f2f2f2;}.c,.e{fill:#8c0821;}.c{opacity:0.4;}.d{fill:#2f2e41;}.f{fill:#ffb8b8;}.g{opacity:0.1;}.h{fill:#d0cde1;}</style></defs><g transform="translate(0 0)"><ellipse class="a" cx="116.797" cy="14.656" rx="116.797" ry="14.656" transform="translate(109.582 301.777)"/><path class="b" d="M520,414.663l-45.154,21.369,39.961-29.881a225.505,225.505,0,0,0-21.819-28.712L297.169,426.112l176.879-67.473a225.465,225.465,0,0,0-25.685-19.578L149.981,387.122a223.619,223.619,0,0,0-48.975,139.553H550.151A223.5,223.5,0,0,0,520,414.663Z" transform="translate(-96.043 -223.545)"/><path class="b" d="M487.238,280.733A224.729,224.729,0,0,0,216.29,338.976C286.831,323.52,409.649,296.764,487.238,280.733Z" transform="translate(-159.339 -179.092)"/><circle class="c" cx="6.728" cy="6.728" r="6.728" transform="translate(365.345 109.78)"/><circle class="c" cx="4.72" cy="4.72" r="4.72" transform="translate(354.901 115.002)"/><circle class="c" cx="14.091" cy="14.091" r="14.091" transform="translate(39.46 120.247)"/><circle class="c" cx="9.885" cy="9.885" r="9.885" transform="translate(17.587 131.184)"/><rect class="d" width="459.974" height="0.902" transform="translate(0 302.679)"/><path class="a" d="M950.824,689.311,915,636.1s54.253,18.94,48.1,53.213Z" transform="translate(-542.963 -386.632)"/><path class="e" d="M982.025,689.311l35.824-53.213s-54.253,18.94-48.1,53.213Z" transform="translate(-572.757 -386.632)"/><path class="b" d="M219.487,199.024c0-2.93-4.178-5.3-9.331-5.3-.1,0-.2,0-.3,0-1.555-4.765-8.9-8.374-17.735-8.374-7.515,0-13.955,2.613-16.667,6.327a23.633,23.633,0,0,0-6.141-.786c-7.9,0-14.307,3.642-14.307,8.134,0,4.081,5.286,7.459,12.177,8.044a131.164,131.164,0,0,0,21.621,1.5c14.925,0,25.846-2.847,26.12-4.987C217.653,202.66,219.487,200.964,219.487,199.024Z" transform="translate(-125.688 -139.15)"/><path class="b" d="M719.487,204.024c0-2.93-4.178-5.3-9.331-5.3-.1,0-.2,0-.3,0-1.555-4.765-8.9-8.374-17.735-8.374-7.515,0-13.955,2.613-16.667,6.327a23.633,23.633,0,0,0-6.141-.786c-7.9,0-14.307,3.642-14.307,8.134,0,4.081,5.286,7.459,12.177,8.044a131.166,131.166,0,0,0,21.621,1.5c14.925,0,25.846-2.847,26.12-4.987C717.653,207.66,719.487,205.964,719.487,204.024Z" transform="translate(-400.211 -141.895)"/><path class="b" d="M939.19,106.9c0-5.143-7.333-9.311-16.378-9.311-.179,0-.356,0-.534.008-2.729-8.364-15.627-14.7-31.13-14.7-13.19,0-24.495,4.586-29.255,11.105a41.481,41.481,0,0,0-10.78-1.38C837.243,92.627,826,99.019,826,106.9c0,7.163,9.278,13.092,21.374,14.119,8.79,1.607,22.519,2.641,37.95,2.641,26.2,0,45.366-5,45.847-8.754C935.97,113.288,939.19,110.311,939.19,106.9Z" transform="translate(-494.097 -82.902)"/><path class="d" d="M572.536,352.653c-9.328-15.761-27.782-16.5-27.782-16.5s-17.983-2.3-29.518,21.7c-10.752,22.374-25.592,43.977-2.389,49.214l4.191-13.045,2.6,14.016a90.788,90.788,0,0,0,9.928.17c24.848-.8,48.512.235,47.751-8.682C576.3,387.682,581.512,367.818,572.536,352.653Z" transform="translate(-315.415 -221.918)"/><path class="d" d="M520.278,668.806a36.784,36.784,0,0,1-1.19,5.122c-.584,1.641-1.485,3.159-2.019,4.818-1.7,5.286.657,11.179,4.424,15.259a24.9,24.9,0,0,0,12.14,7.209,49.53,49.53,0,0,0,10.433,1.1c9.7.329,19.643.623,28.831-2.493a50.1,50.1,0,0,0,8.376-3.805,6.273,6.273,0,0,0,2.173-1.711,5.981,5.981,0,0,0,.784-3.511c-.021-4.111-.854-8.2-.656-12.306a48.771,48.771,0,0,0,.326-6.814,12.571,12.571,0,0,0-9.607-10.828,26.1,26.1,0,0,0-7.964,0,203.041,203.041,0,0,1-20.726.927c-7.07-.045-14.1-1.124-21.132-1.237-2.081-.033-2.038.608-2.7,2.622A49.054,49.054,0,0,0,520.278,668.806Z" transform="translate(-324.172 -400.043)"/><path class="f" d="M559.076,443.486a12.342,12.342,0,0,1-1.776,5.085c-1.23,1.682-3.236,2.643-4.559,4.253-1.992,2.423-2.106,5.833-2.114,8.969-.008,2.89.051,5.971,1.662,8.37a14.626,14.626,0,0,0,4.192,3.7c6.043,4.072,12.573,8.218,19.859,8.352,3.019.056,6.256-.724,8.242-3a12.378,12.378,0,0,0,2-3.56,47.276,47.276,0,0,0,3.346-14.392,16.9,16.9,0,0,0-.637-6.914c-.885-2.468-2.675-4.5-3.858-6.838a15.223,15.223,0,0,1-1.465-9.008.972.972,0,0,0-.051-.653.951.951,0,0,0-.784-.318l-14.447-1.04a31.439,31.439,0,0,1-4.011-.459c-.779-.158-2.836-1.264-3.578-.97C559.718,435.608,559.358,442.011,559.076,443.486Z" transform="translate(-342.905 -276.227)"/><path class="g" d="M559.076,443.486a12.342,12.342,0,0,1-1.776,5.085c-1.23,1.682-3.236,2.643-4.559,4.253-1.992,2.423-2.106,5.833-2.114,8.969-.008,2.89.051,5.971,1.662,8.37a14.626,14.626,0,0,0,4.192,3.7c6.043,4.072,12.573,8.218,19.859,8.352,3.019.056,6.256-.724,8.242-3a12.378,12.378,0,0,0,2-3.56,47.276,47.276,0,0,0,3.346-14.392,16.9,16.9,0,0,0-.637-6.914c-.885-2.468-2.675-4.5-3.858-6.838a15.223,15.223,0,0,1-1.465-9.008.972.972,0,0,0-.051-.653.951.951,0,0,0-.784-.318l-14.447-1.04a31.439,31.439,0,0,1-4.011-.459c-.779-.158-2.836-1.264-3.578-.97C559.718,435.608,559.358,442.011,559.076,443.486Z" transform="translate(-342.905 -276.227)"/><circle class="f" cx="21.195" cy="21.195" r="21.195" transform="translate(208.792 126.807)"/><path class="h" d="M566.632,499.14a13,13,0,0,0,3.723,2.975,11.7,11.7,0,0,0,4.651.885c3.821.107,7.962-.593,10.62-3.339,3.426-3.541,3.313-9.251,6-13.382a2.982,2.982,0,0,1,.865-.946,2.805,2.805,0,0,1,1.472-.338c3.392-.032,6.346,2.168,9.012,4.264a11.872,11.872,0,0,1,3.172,3.231,10.955,10.955,0,0,1,1.07,3.276,143.929,143.929,0,0,1,2.177,19.643c.235,3.634.47,7.272.452,10.914-.057,12-2.846,23.8-5.619,35.468-.357,1.5-.846,3.185-2.214,3.906a5.459,5.459,0,0,1-1.932.472,236.445,236.445,0,0,1-23.9,1.99q-4.681.072-9.358-.227a5.04,5.04,0,0,1-1.576-.275,4.445,4.445,0,0,1-1.719-1.459c-4.325-5.451-4.581-12.986-4.553-19.944q.1-25.518,1.823-51c.095-1.4.115-3.1-.895-4.207A52.675,52.675,0,0,0,566.632,499.14Z" transform="translate(-347.488 -303.667)"/><path class="e" d="M526.171,459.792c-.716,1.3-5.993,4.513-7.012,5.587-5.693,6-16.083,5.775-21.289,12.2a20.025,20.025,0,0,0-3.483,7.927c-.99,3.995-1.519,8.352.14,12.119,1.6,3.625,4.955,6.13,7.236,9.368,2.5,3.555,3.63,7.871,4.709,12.084.8,3.11,1.6,6.3,1.29,9.493-.353,3.633-2.111,6.96-3.149,10.46s-1.217,7.668,1.183,10.418c1.763,2.021,4.529,2.822,7.173,3.272a82.41,82.41,0,0,0,10.224.89c3.022.134,6.353.16,8.677-1.778a8.724,8.724,0,0,0,2.733-6.394,41.265,41.265,0,0,0-.7-7.115c-.322-2.453-.446-4.928-.55-7.4q-.7-16.639-.19-33.3a28.338,28.338,0,0,0-.337-6.91c-.648-2.971-2.254-5.627-3.594-8.357a31.623,31.623,0,0,1-3.506-16.705C526.126,459.71,528.718,455.181,526.171,459.792Z" transform="translate(-311.516 -288.792)"/><path class="e" d="M623.081,457.725c1.09,1.121,4.8,1.49,6.182,2.212a21.663,21.663,0,0,0,4.064,1.407A52.762,52.762,0,0,1,647.6,467.9a8.664,8.664,0,0,1,2.388,2.062,9.453,9.453,0,0,1,1.321,3.73,31.74,31.74,0,0,1-1.137,20.839l-4.063,12.992c-3.033,9.7-6.086,19.49-6.939,29.615a69.665,69.665,0,0,0,.625,16.82,1.994,1.994,0,0,1-.205,1.629,1.6,1.6,0,0,1-1,.458c-1.961.307-3.859-.693-5.636-1.578a62.417,62.417,0,0,0-17.206-5.63,40,40,0,0,0,5.344-11.017,66.685,66.685,0,0,0,1.615-7.577l1.89-10.933a107.443,107.443,0,0,0,1.622-12.091,15.136,15.136,0,0,0-.263-4.555,22.089,22.089,0,0,0-1.726-4.107,35.1,35.1,0,0,1-3.351-20.961c.536-3.1,1.579-6.206,1.144-9.322-.418-3,.016-5.325-.752-8.291C618.121,447.8,621.03,455.617,623.081,457.725Z" transform="translate(-378.664 -286.274)"/><path class="e" d="M497.017,513.737c-1.42,2.947-3.795,5.458-4.6,8.628a18.852,18.852,0,0,0-.4,4.51,21.422,21.422,0,0,0,.669,6.781c.451,1.4,1.185,2.687,1.714,4.058a14.715,14.715,0,0,1,.964,6.012c-.143,2.839-1.107,5.595-1.182,8.436-.119,4.469,1.948,8.669,3.965,12.659a9.306,9.306,0,0,1,13.527-4.428,2.774,2.774,0,0,0,.61-2.022q.224-7.776.431-15.553c.218-8.018.426-16.144-1.418-23.95a22.594,22.594,0,0,0-4.5-9.769c-1.251-1.439-5.5-5.231-7.55-3.618-.923.725-.708,2.7-.854,3.7a15.692,15.692,0,0,1-1.366,4.559Z" transform="translate(-310.718 -314.701)"/><path class="e" d="M668.159,496.252a21.694,21.694,0,0,1,.725,6.524q.041,6.722-.178,13.443a25.063,25.063,0,0,1-.873,6.806c-.459,1.442-1.166,2.795-1.64,4.232-1.42,4.308-.644,8.98-.522,13.515a15.36,15.36,0,0,1-.372,4.372c-.749,2.811-2.762,5.082-4.168,7.629-1.335,2.419-2.14,5.13-3.734,7.387s-4.353,4.045-7.028,3.352c-2.026-.525-3.466-2.319-4.462-4.16a20.4,20.4,0,0,1-2.11-13.235c1-5.5,4.232-10.385,5.4-15.856,1.6-7.512-.832-15.264-.76-22.945a11.089,11.089,0,0,1,.484-3.557,14.884,14.884,0,0,1,3.138-4.562,57.6,57.6,0,0,0,4.218-5.535c.869-1.3,2.048-4.627,3.588-4.9C663.3,488.14,667.306,493.6,668.159,496.252Z" transform="translate(-393.886 -305.709)"/><path class="d" d="M439.767,670.711a20.919,20.919,0,0,0-5.819-.619,14.524,14.524,0,0,0-13.484,17.122,24.4,24.4,0,0,0,2.306,6.3c1.543,3.132,3.394,6.257,6.251,8.264a24.349,24.349,0,0,0,5.517,2.626l15.048,5.669c2.214.834,4.428,1.668,6.663,2.441a130.337,130.337,0,0,0,34.8,6.919,37.689,37.689,0,0,0,10.806-.548,3.518,3.518,0,0,0,2.213-1.2,3.791,3.791,0,0,0,.494-1.633l.926-6.482a5.43,5.43,0,0,0-.079-2.733,5.234,5.234,0,0,0-2.5-2.357c-9.893-5.682-21.444-8.817-29.771-16.615-1.96-1.836-3.6-4.746-5.982-5.993-2.7-1.414-5.882-2.221-8.673-3.524C452.382,675.5,446.382,672.231,439.767,670.711Z" transform="translate(-271.308 -405.289)"/><path class="g" d="M488.67,689.044c5.319,1.667,27.775,13.213,31.624,17.245-.516.186-18.021-9.624-18.546-9.782a105.75,105.75,0,0,1-14.11-4.972c-.912-.422-5.926-2.4-5.7-3.556C482.2,686.68,487.726,688.749,488.67,689.044Z" transform="translate(-305.189 -414.884)"/><path class="f" d="M617.463,770.228a1.25,1.25,0,0,0,.843-.248,1.3,1.3,0,0,0,.263-.97q-.012-4.415-.025-8.831a27.147,27.147,0,0,0-8.168-1.971l-13.009-1.739c.3.04-2.034,5.6-1.676,6.346.63,1.309,5.449,2.469,6.809,3.087C607.227,768.051,612.139,770.414,617.463,770.228Z" transform="translate(-367.627 -452.721)"/><path class="f" d="M543.744,756.9c-2.456.391-5.2.737-6.789,2.649-2.017,2.425-1.159,6.039-.2,9.043a2.932,2.932,0,0,0,3.421,2.447c2.24.142,4.624.253,6.581-.846a28.869,28.869,0,0,0,2.557-1.9,16.393,16.393,0,0,1,4.7-2.149,47.526,47.526,0,0,1,9.435-1.944,14.674,14.674,0,0,0,3.717-.655,4.119,4.119,0,0,0,2.618-2.541c.453-1.6-.479-3.241-1.374-4.649a18.545,18.545,0,0,0-3.957-4.89c-2.424-1.883-3.623-.437-6.065.767A51.461,51.461,0,0,1,543.744,756.9Z" transform="translate(-334.724 -449.477)"/><path class="d" d="M503.1,762.552l-15.6-4.61a20.643,20.643,0,0,0-5.8-1.125,6.968,6.968,0,0,0-5.33,2.156c-1.209,1.419-1.556,3.359-1.857,5.2l-.645,3.937a19.772,19.772,0,0,0-.361,6.045,6.684,6.684,0,0,0,3.1,4.98c2.158,1.178,4.8.6,7.212.11a78.518,78.518,0,0,1,14.78-1.585c1.867-.022,3.825,0,5.474-.873a6.835,6.835,0,0,0,3.336-5.447C507.714,767.977,506.593,763.584,503.1,762.552Z" transform="translate(-300.499 -452.912)"/><path class="d" d="M649.564,756.817c2.022-.354,3.806-1.5,5.744-2.182a25.545,25.545,0,0,1,8.571-.944,5.5,5.5,0,0,1,3.073.615c1.273.847,1.6,2.543,1.815,4.056l1.306,9.132a14.332,14.332,0,0,1,.107,5.173,4.867,4.867,0,0,1-3.216,3.76c-2.039.53-4.039-.773-5.964-1.628-4.813-2.139-10.408-1.592-15.426-3.191a3.458,3.458,0,0,1-2.309-1.651,3.757,3.757,0,0,1-.18-1.578c.086-2.935-.533-6.943.351-9.748C644.23,756.108,647.307,756.817,649.564,756.817Z" transform="translate(-393.596 -451.194)"/><path class="d" d="M651.653,662.339a27.084,27.084,0,0,1,9.541-.652,11.974,11.974,0,0,1,7.041,2.756c2.267,2.149,2.995,5.472,3.056,8.595a26.85,26.85,0,0,1-5.836,17.148,15.558,15.558,0,0,1-3.337,3.212,21.966,21.966,0,0,1-4.341,2.092l-33.7,13.292c-8.865,3.5-17.762,7-27.009,9.309a2.1,2.1,0,0,1-2.832-1.027,69.814,69.814,0,0,1-7.386-13.511.91.91,0,0,1,.4-1.435l23.835-13.7a24.1,24.1,0,0,0,4.851-3.343,12.044,12.044,0,0,0,2.491-3.468c.494-1.032.54-3.467,1.171-4.23.618-.747,2.732-.806,3.708-1.1a33.652,33.652,0,0,0,4.036-1.526c5.332-2.385,10.08-5.851,15.191-8.644a38.977,38.977,0,0,1,9.117-3.774Z" transform="translate(-362.68 -400.592)"/><path class="g" d="M654.259,682.83c-4.1,3.076-9.4,5.9-13.456,9.06-1.385,1.077-24.476,14.059-24.8,15.783,3.786.638,27.906-16.236,31.357-17.919a55.733,55.733,0,0,0,9.541-6.415c.773-.6,4.047-2.406,1.829-3.077C657.478,679.884,655.181,682.216,654.259,682.83Z" transform="translate(-378.798 -410.857)"/><path class="d" d="M501.831,274.911l-18.232-9.55-25.177,3.907-5.209,23.007,12.967-.5,3.623-8.453v8.313l5.983-.23,3.473-13.456,2.17,14.325,21.271-.434Z" transform="translate(-248.834 -145.695)"/><rect class="a" width="39.233" height="47.35" transform="translate(209.694 176.412)"/><path class="f" d="M509.294,585.289a9.474,9.474,0,0,0,3.4,3.386,6.655,6.655,0,0,0,5.85-.157,10.3,10.3,0,0,0,4.222-4.233c1.981-3.5,2.392-7.686,2.145-11.7s-1.1-7.965-1.484-11.969c-.276-2.91-.3-5.837-.32-8.76a2.913,2.913,0,0,1,.368-1.772,3.478,3.478,0,0,1,1.955-.976c4-1.188,6.654-4.936,8.557-8.649,1.271-2.479,2.376-5.189,2.131-7.964s-2.24-5.57-5.011-5.853c-2.285-.233-4.394,1.218-6.042,2.817a25.91,25.91,0,0,0-7.586,15.161c-.362,2.821-.258,5.719-1.026,8.458-1.639,5.848-6.765,9.434-9.32,14.7C504.32,573.575,505.874,580.158,509.294,585.289Z" transform="translate(-318.225 -326.522)"/><path class="f" d="M651.948,541.712a11.053,11.053,0,0,1-6.2,5.956,8.561,8.561,0,0,1-5.388.33,5.975,5.975,0,0,1-3.947-3.531,9.509,9.509,0,0,1-.445-2.652c-.256-3.944-.157-8.008,1.275-11.691.552-1.421,1.3-2.768,1.734-4.229a21.2,21.2,0,0,0,.653-5.161l.471-10.761a7,7,0,0,0-.16-2.333c-.47-1.557-1.925-2.569-3.26-3.5-3.225-2.242-6.411-4.859-7.974-8.463a5.935,5.935,0,0,1-.551-3.505c.441-2.137,2.6-3.52,4.728-3.986a10.577,10.577,0,0,1,12.68,8.523c.211,1.214.208,2.455.331,3.681.262,2.6,1.088,5.109,1.6,7.672,1.273,6.313.613,12.839,1.872,19.151C650.426,532.493,654.394,535.937,651.948,541.712Z" transform="translate(-385.438 -305.288)"/><path class="d" d="M141.533,666.458l-.9-.018a209.169,209.169,0,0,1,3.2-29.893c3.9-21.141,10.385-35.026,19.275-41.268l.518.738C142.858,610.6,141.543,665.9,141.533,666.458Z" transform="translate(-117.799 -364.221)"/><path class="d" d="M166.533,714.82l-.9-.018c.019-1,.583-24.538,9.85-31.044l.518.738C167.106,690.74,166.537,714.58,166.533,714.82Z" transform="translate(-131.525 -412.799)"/><circle class="e" cx="4.51" cy="4.51" r="4.51" transform="translate(46.448 222.86)"/><circle class="e" cx="4.51" cy="4.51" r="4.51" transform="translate(44.215 261.642)"/><path class="d" d="M155.683,591.711a20.031,20.031,0,0,1-1.361,10.255,18.255,18.255,0,0,1-3.069-19.6A20.034,20.034,0,0,1,155.683,591.711Z" transform="translate(-122.776 -357.129)"/><path class="d" d="M183.074,624.368a20.031,20.031,0,0,1-10.335.446,18.255,18.255,0,0,1,18.769-6.438A20.03,20.03,0,0,1,183.074,624.368Z" transform="translate(-135.427 -376.639)"/><path class="d" d="M187.206,702.832a14.041,14.041,0,0,1-7.244.313,12.8,12.8,0,0,1,13.155-4.512A14.04,14.04,0,0,1,187.206,702.832Z" transform="translate(-139.393 -420.757)"/></g></svg>