<svg xmlns="http://www.w3.org/2000/svg" xmlns:xlink="http://www.w3.org/1999/xlink" width="485.852" height="331.09" viewBox="0 0 485.852 331.09"><defs><style>.a{fill:#3f3d56;}.b{fill:#8c0821;}.c{opacity:0.7;}.d{fill:url(#a);}.e{opacity:0.1;}.f{fill:#e0e0e0;}.g{fill:#72351c;}.h{fill:#fda57d;}.i{fill:#535461;}.j{fill:#fff;}.k{fill:#eee;}</style><linearGradient id="a" x1="0.5" y1="1" x2="0.5" gradientUnits="objectBoundingBox"><stop offset="0" stop-color="gray" stop-opacity="0.251"/><stop offset="0.535" stop-color="gray" stop-opacity="0.122"/><stop offset="1" stop-color="gray" stop-opacity="0.102"/></linearGradient></defs><g transform="translate(0 0)"><path class="a" d="M240.285,630.266c-3.493,13.3-15.734,21.616-15.734,21.616s-6.577-13.255-3.084-26.557S237.2,603.709,237.2,603.709,243.778,616.964,240.285,630.266Z" transform="translate(-167.348 -361.289)"/><path class="b" d="M238.647,640.607c-9.784,9.666-10.879,24.422-10.879,24.422s14.768-.916,24.552-10.582S263.2,630.024,263.2,630.024,248.431,630.94,238.647,640.607Z" transform="translate(-171.009 -374.443)"/><rect class="b" width="53.473" height="22.754" rx="11.377" transform="translate(34.036 286.698)"/><g class="c" transform="translate(406.873 263.964)"><path class="d" d="M968.8,654.984v-8.2H927.8v37.921A7.994,7.994,0,0,0,935.8,692.7h25.007a7.994,7.994,0,0,0,7.994-7.994v-8.4a10.659,10.659,0,1,0,0-21.318Zm0,17.218V659.083a6.559,6.559,0,1,1,0,13.119Z" transform="translate(-927.805 -646.785)"/></g><path class="b" d="M997.413,665.744a9.732,9.732,0,1,0,9.732,9.732,9.732,9.732,0,0,0-9.732-9.732Zm0,15.721a5.989,5.989,0,1,1,5.989-5.989,5.989,5.989,0,0,1-5.989,5.989Z" transform="translate(-550.862 -392.298)"/><path class="e" d="M997.413,665.744a9.732,9.732,0,1,0,9.732,9.732,9.732,9.732,0,0,0-9.732-9.732Zm0,15.721a5.989,5.989,0,1,1,5.989-5.989,5.989,5.989,0,0,1-5.989,5.989Z" transform="translate(-550.862 -392.298)"/><path class="b" d="M818.016,531.776h37.431v37.046a4.876,4.876,0,0,1-4.876,4.876H822.892a4.876,4.876,0,0,1-4.876-4.876Z" transform="translate(-408.897 -265.816)"/><rect class="f" width="485.852" height="16.47" transform="translate(0 307.883)"/><g class="c" transform="translate(155.241 0)"><path class="d" d="M589.008,316.686c-5.207-18.9-34.728-32.7-56.941-35.764,0-.139.011-.278.011-.418v-16.18l.072-.025v-.613a55.485,55.485,0,0,0,33.514-35.125,59.956,59.956,0,0,0,3.576-7.71c2.371-.863,4.162-4.774,4.162-9.472a16.538,16.538,0,0,0-.669-4.749,60.74,60.74,0,0,0,.445-7.212,60.105,60.105,0,0,0-19.854-44.7,11.73,11.73,0,0,0,.188-2.939c-.5-7.766-8.8-13.041-16.571-13.394a16.4,16.4,0,0,0,2.767-17.323c-4.957,7.222-15.133,7.989-23.892,8.046A7.166,7.166,0,0,0,519.1,119c-9.154,12.27-27,14.542-37.888,25.3a31.94,31.94,0,0,0-5.891,8.035,60.137,60.137,0,0,0-22.666,47.08,60.8,60.8,0,0,0,.436,7.147,16.486,16.486,0,0,0-.69,4.814c0,4.72,1.808,8.642,4.2,9.481a59.963,59.963,0,0,0,3.592,7.735,55.474,55.474,0,0,0,33.28,35V280.5c0,.13.007.259.01.388-22.3,3.008-52.054,16.919-57.215,35.972-4.457,16.454-9.214,34.523-11.581,45.133,20.29,14.257,62.864,22.628,89.545,22.628,25.35,0,66.785-7.556,86.477-20.537C598.566,352.43,593.659,333.567,589.008,316.686Z" transform="translate(-424.678 -119)"/></g><path class="b" d="M517.276,540.121c24.455,0,64.424-7.289,83.421-19.812-2.058-11.245-6.792-29.442-11.278-45.726-5.714-20.74-41.775-35.118-63.287-35.118H505.4c-21.579,0-57.692,14.461-63.334,35.29-4.3,15.872-8.889,33.3-11.172,43.538C450.469,532.045,491.538,540.121,517.276,540.121Z" transform="translate(-272.545 -279.189)"/><circle class="g" cx="58.134" cy="58.134" r="58.134" transform="translate(185.335 24.137)"/><path class="e" d="M449.291,261.311h37.25v29.8a18.625,18.625,0,0,1-18.625,18.625h0a18.625,18.625,0,0,1-18.625-18.625v-29.8Z" transform="translate(-224.585 -130.62)"/><path class="h" d="M454.634,258.553H481.2a5.343,5.343,0,0,1,5.343,5.343v24.457a18.625,18.625,0,0,1-18.625,18.625h0a18.625,18.625,0,0,1-18.625-18.625V263.9A5.343,5.343,0,0,1,454.634,258.553Z" transform="translate(-224.585 -129.241)"/><path class="e" d="M563.709,403.964a53.61,53.61,0,0,0,37.249.1v-4.576H563.709Z" transform="translate(-338.933 -259.207)"/><circle class="h" cx="53.391" cy="53.391" r="53.391" transform="translate(190.078 40.469)"/><path class="e" d="M525.046,196.139s22.5,45.674,85.974,19.143l-14.777-23.173-26.2-9.4Z" transform="translate(-319.607 -150.844)"/><path class="g" d="M525.046,194.8s22.5,45.674,85.974,19.143l-14.777-23.173-26.2-9.4Z" transform="translate(-319.607 -150.172)"/><path class="g" d="M523.533,165.228a30.842,30.842,0,0,1,7.645-12.435c10.5-10.381,27.719-12.573,36.549-24.41a6.913,6.913,0,0,1-3.166,9.748c8.449-.055,18.266-.8,23.048-7.762a15.825,15.825,0,0,1-2.669,16.711c7.5.34,15.5,5.43,15.985,12.921.323,4.991-2.806,9.716-6.908,12.578s-9.063,4.176-13.947,5.253C565.815,180.976,514.23,194.151,523.533,165.228Z" transform="translate(-318.294 -123.69)"/><path class="g" d="M601.136,307.6h-1.415l-27.539,24.516c-26.531-12.426-46.009,0-46.009,0L497.29,308.61l-2.912.366A53.386,53.386,0,1,0,601.142,307.6Zm-53.471,33.92c-10.387,0-18.807-2.105-18.807-4.7s8.42-4.7,18.807-4.7,18.807,2.105,18.807,4.7S558.052,341.522,547.666,341.522Z" transform="translate(-304.277 -213.275)"/><ellipse class="h" cx="4.967" cy="9.312" rx="4.967" ry="9.312" transform="translate(185.09 84.496)"/><ellipse class="h" cx="4.967" cy="9.312" rx="4.967" ry="9.312" transform="translate(291.887 84.496)"/><g class="c" transform="translate(139.617 188.903)"><rect class="d" width="206.618" height="118.979" rx="14.5"/></g><rect class="i" width="199.132" height="116.784" rx="26.835" transform="translate(143.36 191.098)"/><circle class="j" cx="6.738" cy="6.738" r="6.738" transform="translate(236.188 242.753)"/><rect class="f" width="444.678" height="6.738" transform="translate(20.587 324.353)"/><rect class="e" width="444.678" height="2.246" transform="translate(20.587 324.353)"/><path class="e" d="M986.37,650.776V685.4a7.3,7.3,0,0,1-7.3,7.3h3.743a7.3,7.3,0,0,0,7.3-7.3V650.776Z" transform="translate(-546.558 -384.816)"/><path class="k" d="M945.271,594.021a2.186,2.186,0,0,0-1.653.839c-.491.89.4,1.894,1.211,2.505a16.1,16.1,0,0,1,4.1,3.817,4.785,4.785,0,0,1,.225,5.289c-1.455,1.974-4.927,2.4-5.263,4.827-.216,1.559,1.132,2.89,2.5,3.673,3.372,1.931,7.718,2.447,10.16,5.469,1.01-2.078,3.27-3.278,5.522-3.791s4.593-.475,6.876-.822a2.378,2.378,0,0,0,1.9-1.006c.638-1.3-1.181-2.849-.553-4.15.478-.99,1.882-.913,2.907-1.31,1.67-.646,2.358-2.794,1.884-4.52a8.511,8.511,0,0,0-3.22-4.181,36.065,36.065,0,0,0-12.967-5.994c-2.146-.586-4.664-1.506-6.893-1.595A34.47,34.47,0,0,0,945.271,594.021Z" transform="translate(-528.766 -355.967)"/></g></svg>