<svg xmlns="http://www.w3.org/2000/svg" width="26.088" height="27.251" viewBox="0 0 26.088 27.251"><defs><style>.a{fill:#260101;}</style></defs><path class="a" d="M44.4,25l-2.341-1.352a10.583,10.583,0,0,0,0-3.857L44.4,18.439a.664.664,0,0,0,.3-.769,13.684,13.684,0,0,0-3.005-5.2.661.661,0,0,0-.813-.126L38.541,13.7a10.369,10.369,0,0,0-3.34-1.928v-2.7a.658.658,0,0,0-.516-.643,13.812,13.812,0,0,0-6,0,.658.658,0,0,0-.516.643v2.7a10.7,10.7,0,0,0-3.34,1.928l-2.335-1.352a.653.653,0,0,0-.813.126,13.6,13.6,0,0,0-3.005,5.2.657.657,0,0,0,.3.769L21.317,19.8a10.583,10.583,0,0,0,0,3.857L18.977,25a.664.664,0,0,0-.3.769,13.684,13.684,0,0,0,3.005,5.2.661.661,0,0,0,.813.126l2.341-1.352a10.369,10.369,0,0,0,3.34,1.928v2.7a.658.658,0,0,0,.516.643,13.812,13.812,0,0,0,6,0,.658.658,0,0,0,.516-.643v-2.7a10.7,10.7,0,0,0,3.34-1.928L40.887,31.1a.653.653,0,0,0,.813-.126,13.6,13.6,0,0,0,3.005-5.2A.679.679,0,0,0,44.4,25ZM31.685,26.115a4.4,4.4,0,1,1,4.4-4.4A4.4,4.4,0,0,1,31.685,26.115Z" transform="translate(-18.644 -8.099)"/></svg>